<?xml version="1.0" encoding="utf-8"?>
<!-- Generator: Adobe Illustrator 25.0.1, SVG Export Plug-In . SVG Version: 6.00 Build 0)  -->
<svg version="1.1" id="Layer_1" xmlns="http://www.w3.org/2000/svg" xmlns:xlink="http://www.w3.org/1999/xlink" x="0px" y="0px"
	 viewBox="0 0 517 97.7" style="enable-background:new 0 0 517 97.7;" xml:space="preserve">
<style type="text/css">
	.st0{fill:none;}
	.st1{enable-background:new    ;}
	.st2{fill:#757575;}
	.st3{fill:#F3B927;}
	.st4{fill:#0B8D94;}
	.st5{fill:#008100;}
	.st6{fill:#000099;}
</style>
<g>
	<rect x="260.4" y="20.5" class="st0" width="259.5" height="56.3"/>
	<g class="st1">
		<path class="st2" d="M261.7,31.3c0-6.4,4.5-11.1,11-11.1c6.4,0,11,4.7,11,11.1c0,6.4-4.6,11.1-11,11.1
			C266.3,42.4,261.7,37.7,261.7,31.3z M279.8,31.3c0-4.5-2.8-7.8-7.1-7.8c-4.4,0-7.1,3.3-7.1,7.8c0,4.4,2.8,7.8,7.1,7.8
			C277,39,279.8,35.7,279.8,31.3z"/>
		<path class="st2" d="M288.1,42V29.3h-2.6v-2.9h2.6v-0.9c0-3.4,2-5.4,4.9-5.4c1.4,0,2.8,0.4,3.7,1.4l-1.3,2.1
			c-0.5-0.4-1-0.7-1.8-0.7c-1.4,0-2.2,0.9-2.2,2.6v0.9h3.2v2.9h-3.2V42H288.1z M298,42V29.3h-2.6v-2.9h2.6v-0.9
			c0-3.5,2.1-5.4,4.9-5.4c1.1,0,2,0.2,2.7,0.6l-0.7,2.5c-0.4-0.2-0.8-0.4-1.4-0.4c-1.4,0-2.2,0.9-2.2,2.6v0.9h3.2v2.9h-3.2V42H298z
			 M306.7,22.4c0-1.2,0.9-2.1,2.1-2.1s2.1,0.9,2.1,2.1s-0.9,2.1-2.1,2.1S306.7,23.6,306.7,22.4z M307.1,42V26.4h3.4V42H307.1z"/>
		<path class="st2" d="M314,34.2c0-4.7,3.3-8.2,8-8.2c3.1,0,4.9,1.3,6,2.8l-2.2,2c-0.9-1.2-2.1-1.8-3.6-1.8c-2.8,0-4.7,2.1-4.7,5.2
			c0,3,1.9,5.2,4.7,5.2c1.5,0,2.7-0.6,3.6-1.9l2.2,2.1c-1.1,1.5-2.9,2.8-6,2.8C317.3,42.4,314,38.9,314,34.2z"/>
		<path class="st2" d="M330,34.2c0-4.5,3.3-8.2,7.9-8.2c4.7,0,7.6,3.5,7.6,8.5v0.8h-12c0.3,2.3,2,4.3,4.9,4.3c1.5,0,3.3-0.6,4.5-1.7
			l1.5,2.2c-1.6,1.5-3.9,2.3-6.3,2.3C333.5,42.4,330,39.1,330,34.2z M337.9,28.8c-2.9,0-4.2,2.2-4.4,4.1h8.8
			C342.2,31.1,341,28.8,337.9,28.8z"/>
		<path class="st2" d="M356.3,34.2c0-4.5,3-8.2,8-8.2s8,3.7,8,8.2c0,4.5-3,8.2-8,8.2S356.3,38.6,356.3,34.2z M368.8,34.2
			c0-2.7-1.6-5.2-4.5-5.2c-2.9,0-4.5,2.4-4.5,5.2c0,2.8,1.6,5.2,4.5,5.2C367.2,39.4,368.8,37,368.8,34.2z"/>
		<path class="st2" d="M376.6,42V29.3H374v-2.9h2.6v-0.9c0-3.4,2-5.4,4.9-5.4c1.4,0,2.8,0.4,3.7,1.4l-1.3,2.1
			c-0.5-0.4-1-0.7-1.8-0.7c-1.4,0-2.2,0.9-2.2,2.6v0.9h3.2v2.9H380V42H376.6z"/>
	</g>
	<g class="st1">
		<path class="st2" d="M262.6,76.7V55.2h9.5c4.5,0,7,3.1,7,6.7c0,3.6-2.5,6.7-7,6.7h-5.7v8.1H262.6z M275.3,61.9
			c0-2.1-1.5-3.4-3.6-3.4h-5.2v6.8h5.2C273.7,65.3,275.3,64,275.3,61.9z"/>
		<path class="st2" d="M280.8,68.9c0-4.5,3-8.2,8-8.2s8,3.7,8,8.2c0,4.5-3,8.2-8,8.2S280.8,73.3,280.8,68.9z M293.3,68.9
			c0-2.7-1.6-5.2-4.5-5.2c-2.9,0-4.5,2.4-4.5,5.2c0,2.8,1.6,5.2,4.5,5.2C291.7,74.1,293.3,71.7,293.3,68.9z"/>
		<path class="st2" d="M303.6,74.5v8.1h-3.4V61.1h3.4v2.1c1.2-1.5,3-2.5,5-2.5c4,0,6.9,3,6.9,8.2s-2.9,8.2-6.9,8.2
			C306.6,77.1,304.9,76.2,303.6,74.5z M312,68.9c0-3-1.7-5.2-4.4-5.2c-1.6,0-3.2,0.9-4,2.1V72c0.7,1.2,2.4,2.1,4,2.1
			C310.3,74.1,312,71.9,312,68.9z"/>
		<path class="st2" d="M329.4,76.7v-2.1c-1.1,1.2-3,2.5-5.5,2.5c-3.4,0-5-1.8-5-4.9v-11h3.4v9.8c0,2.4,1.2,3.2,3.2,3.2
			c1.7,0,3.2-1,4-2V61.1h3.4v15.6H329.4z"/>
		<path class="st2" d="M337.2,76.7V55.2h3.4v21.5H337.2z"/>
		<path class="st2" d="M354.5,76.7V75c-1.2,1.4-3,2.1-5.1,2.1c-2.5,0-5.4-1.7-5.4-5.2c0-3.6,2.8-5.1,5.4-5.1c2.1,0,3.9,0.7,5.1,2
			v-2.3c0-1.8-1.5-2.9-3.6-2.9c-1.7,0-3.3,0.6-4.6,2l-1.4-2.4c1.8-1.7,4.1-2.5,6.5-2.5c3.5,0,6.5,1.5,6.5,5.6v10.4H354.5z
			 M354.5,73.1v-2.4c-0.8-1.1-2.3-1.6-3.7-1.6c-1.9,0-3.4,1.1-3.4,2.8c0,1.7,1.5,2.8,3.4,2.8C352.2,74.8,353.7,74.2,354.5,73.1z"/>
		<path class="st2" d="M363,73v-9h-2.6v-2.9h2.6v-4.3h3.4v4.3h3.2V64h-3.2v8.2c0,1.1,0.5,1.9,1.5,1.9c0.6,0,1.2-0.3,1.5-0.6l0.8,2.6
			c-0.6,0.5-1.6,1-3.2,1C364.3,77.1,363,75.7,363,73z"/>
		<path class="st2" d="M372.2,57.1c0-1.2,0.9-2.1,2.1-2.1s2.1,0.9,2.1,2.1s-0.9,2.1-2.1,2.1S372.2,58.3,372.2,57.1z M372.6,76.7
			V61.1h3.4v15.6H372.6z"/>
		<path class="st2" d="M379.4,68.9c0-4.5,3-8.2,8-8.2s8,3.7,8,8.2c0,4.5-3,8.2-8,8.2S379.4,73.3,379.4,68.9z M391.9,68.9
			c0-2.7-1.6-5.2-4.5-5.2c-2.9,0-4.5,2.4-4.5,5.2c0,2.8,1.6,5.2,4.5,5.2C390.3,74.1,391.9,71.7,391.9,68.9z"/>
		<path class="st2" d="M409.4,76.7V67c0-2.5-1.3-3.2-3.2-3.2c-1.7,0-3.2,1-4,2.1v10.9h-3.4V61.1h3.4v2.1c1-1.2,3.1-2.5,5.5-2.5
			c3.4,0,5,1.8,5,5v11H409.4z"/>
		<path class="st2" d="M440.7,76.7l-1.6-4.2h-9.9l-1.6,4.2h-4.3l8.5-21.5h4.7l8.5,21.5H440.7z M434.2,59l-3.9,10.3h7.7L434.2,59z"/>
		<path class="st2" d="M447.6,76.7V64H445v-2.9h2.6v-0.9c0-3.4,2-5.4,4.9-5.4c1.4,0,2.8,0.4,3.7,1.4l-1.3,2.1
			c-0.5-0.4-1-0.7-1.8-0.7c-1.4,0-2.2,0.9-2.2,2.6v0.9h3.2V64h-3.2v12.6H447.6z M457.5,76.7V64h-2.6v-2.9h2.6v-0.9
			c0-3.4,2-5.4,4.9-5.4c1.4,0,2.8,0.4,3.7,1.4l-1.3,2.1c-0.5-0.4-1-0.7-1.8-0.7c-1.4,0-2.2,0.9-2.2,2.6v0.9h3.2V64h-3.2v12.6H457.5z
			"/>
		<path class="st2" d="M476.2,76.7V75c-1.2,1.4-3,2.1-5.1,2.1c-2.5,0-5.4-1.7-5.4-5.2c0-3.6,2.8-5.1,5.4-5.1c2.1,0,3.9,0.7,5.1,2
			v-2.3c0-1.8-1.5-2.9-3.6-2.9c-1.7,0-3.3,0.6-4.6,2l-1.4-2.4c1.8-1.7,4.1-2.5,6.5-2.5c3.5,0,6.5,1.5,6.5,5.6v10.4H476.2z
			 M476.2,73.1v-2.4c-0.8-1.1-2.3-1.6-3.7-1.6c-1.9,0-3.4,1.1-3.4,2.8c0,1.7,1.5,2.8,3.4,2.8C473.9,74.8,475.4,74.2,476.2,73.1z"/>
		<path class="st2" d="M483.6,57.1c0-1.2,0.9-2.1,2.1-2.1s2.1,0.9,2.1,2.1s-0.9,2.1-2.1,2.1S483.6,58.3,483.6,57.1z M483.9,76.7
			V61.1h3.4v15.6H483.9z"/>
		<path class="st2" d="M491.7,76.7V61.1h3.4v2.3c1.2-1.5,3.1-2.6,5.1-2.6v3.4c-0.3-0.1-0.6-0.1-1-0.1c-1.5,0-3.4,1-4,2.1v10.6H491.7
			z"/>
		<path class="st2" d="M501.6,74.6l1.5-2.4c1.1,1.1,3.3,2.2,5.3,2.2c2,0,3.1-0.8,3.1-2.1c0-3.1-9.4-0.9-9.4-6.9
			c0-2.5,2.2-4.7,6.1-4.7c2.6,0,4.6,0.9,6,2.2l-1.4,2.4c-0.9-1-2.6-1.9-4.6-1.9c-1.8,0-2.9,0.8-2.9,1.9c0,2.7,9.4,0.7,9.4,6.9
			c0,2.8-2.3,4.9-6.5,4.9C505.6,77.1,503.2,76.2,501.6,74.6z"/>
	</g>
	<rect x="244.4" y="3.4" class="st3" width="3.2" height="90.9"/>
	<path class="st3" d="M27.6,28.2c-8.9,0.6-15.9,8.1-15.9,17.2c0,9.4,7.7,17.1,17.1,17.1c3.4,0,6.5-1,9.2-2.7c-0.4,0-0.8,0-1.3,0
		c-9.4,0-17.1-7.7-17.1-17.1C19.7,36.7,22.9,31.3,27.6,28.2 M36.8,13.8c-4.6,0-9,1.1-12.9,3.1c1.6-0.3,3.3-0.4,5-0.4
		c15.9,0,28.9,13,28.9,29c0,11.4-6.3,21-15.7,25.8c13.6-2.4,23.6-14,23.6-28.4C65.7,26.8,52.7,13.8,36.8,13.8"/>
	<path class="st4" d="M36.8,25.6c-3.3,0-6.5,1-9.1,2.7c0.4,0,0.8,0,1.2,0c9.3,0,17.1,7.9,17.1,17.2c0,6-3.2,11.4-7.9,14.4
		c8.9-0.6,15.9-8,15.9-17C53.9,33.4,46,25.6,36.8,25.6 M23.9,16.8C10.3,19.2,0,31.1,0,45.4c0,16.2,12.7,28.8,28.8,28.8
		c4.8,0,9.3-1.1,13.2-3.1c-1.7,0.3-3.5,0.5-5.3,0.5c-16.2,0-28.8-12.7-28.8-28.8C7.9,31.4,14.4,21.6,23.9,16.8"/>
	<path class="st5" d="M27.6,28.2c2.6-1.7,5.8-2.7,9.1-2.7c9.3,0,17.1,7.9,17.1,17.2c0,9-7,16.4-15.9,17c-2.7,1.7-5.8,2.7-9.2,2.7
		c-9.4,0-17.1-7.7-17.1-17.1C11.8,36.3,18.8,28.8,27.6,28.2 M28.8,16.4c-1.7,0-3.3,0.1-5,0.4c-9.4,4.8-15.9,14.6-15.9,26
		c0,16.2,12.7,28.8,28.8,28.8c1.8,0,3.6-0.2,5.3-0.5c9.4-4.7,15.7-14.4,15.7-25.8C57.7,29.4,44.8,16.4,28.8,16.4"/>
	<g>
		<path class="st6" d="M114.1,73.6L90,21c-0.3-0.6-0.8-1.3-2.1-1.3h-0.8c-0.9,0-1.6,0.5-2.1,1.3L60.8,73.6c-0.3,0.7-0.3,1.5,0.1,2.2
			c0.4,0.6,1.1,1,2,1h6.8c1.4,0,2.5-0.8,3-2l3.6-8h22.3l3.6,8c0.5,1,1.3,2,3,2h6.8c0.8,0,1.5-0.4,2-1
			C114.4,75.1,114.4,74.3,114.1,73.6z M80.9,56.5l6.5-14.6L94,56.5H80.9z"/>
	</g>
	<g>
		<path class="st6" d="M153.5,61.2c0,7.9-6.6,16.3-18.8,16.3c-10.3,0-16.2-4.8-17.7-6.3c-0.7-0.7-1.5-1.5-0.5-3.3l0,0l2.8-4.8
			c0.4-0.7,1-1.1,1.7-1.3c0.7-0.1,1.5,0,2.1,0.5c0,0,0.1,0,0.2,0.1c4.3,2.9,8.3,4.6,11.1,4.6c3.6,0,6.3-2.2,6.3-5.2
			c0-3.4-2.8-5.9-9.4-8.6c-6.5-2.7-15.2-7.3-15.2-17.6c0-7.6,5.7-15.8,18.4-15.8c8.5,0,14.9,4.5,16.1,5.4c0.5,0.3,0.9,0.9,1,1.6
			c0.2,0.8,0,1.5-0.4,2.1l-3,4.4c-0.4,0.6-1,1.1-1.6,1.3c-0.8,0.3-1.6,0.2-2.2-0.2c-4.2-2.7-8-4.1-10.4-4.1c-4.1,0-6,2.8-6,4.7
			c0,3.2,2.5,5.5,8.7,8C145,46.2,153.5,51,153.5,61.2z"/>
	</g>
	<g>
		<path class="st6" d="M209.4,22.8v51.7c0,1.2-1.1,2.3-2.3,2.3h-7.2c-1.3,0-2.3-1-2.3-2.3V53.7h-23.8v20.7c0,1.3-1,2.3-2.3,2.3h-7.3
			c-1.2,0-2.3-1.1-2.3-2.3V22.8c0-1.2,1.1-2.3,2.3-2.3h7.3c1.3,0,2.3,1,2.3,2.3v19.9h23.8V22.8c0-1.3,1-2.3,2.3-2.3h7.2
			C208.3,20.5,209.4,21.6,209.4,22.8z"/>
	</g>
	<g>
		<path class="st6" d="M34.3,19.7c-15.9,0-28.8,13-28.8,29c0,16.2,12.7,28.8,28.8,28.8c16.2,0,28.9-12.7,28.9-28.8
			C63.2,32.7,50.2,19.7,34.3,19.7z M34.3,31.5c9.3,0,17.1,7.9,17.1,17.2c0,9.4-7.7,17.1-17.1,17.1s-17.1-7.7-17.1-17.1
			C17.2,39.2,24.9,31.5,34.3,31.5z"/>
	</g>
</g>
</svg>
